<svg id="Layer_3" enable-background="new 0 0 64 64" height="512" viewBox="0 0 64 64" width="512" xmlns="http://www.w3.org/2000/svg"><path d="m62 36h-60v-13l14-4 8.636-13.346c1.474-2.278 4.003-3.654 6.716-3.654h16.29c3.242 0 6.163 1.956 7.397 4.954l4.961 12.046h2" fill="#2b74ca"/><path d="m19 30c17.121 0 31-9.402 31-21 0-2.438-.62-4.777-1.748-6.954-.203-.016-.403-.046-.61-.046h-16.29c-2.714 0-5.242 1.376-6.717 3.654l-8.635 13.346-14 4v3.558c4.882 2.174 10.721 3.442 17 3.442z" fill="#3d98f7"/><path d="m53 60.067c.395.219.782.454 1.16.706l.68.453c.756.505 1.645.774 2.554.774 2.544 0 4.606-2.062 4.606-4.606 0-.909-.269-1.798-.773-2.555l-.73-1.096c-1.628-2.44-2.497-5.309-2.497-8.243 0-2.934.869-5.803 2.496-8.244l.73-1.096c.505-.756.774-1.645.774-2.554 0-2.544-2.062-4.606-4.606-4.606-.909 0-1.798.269-2.555.774l-.68.453c-2.711 1.808-5.899 2.773-9.159 2.773-3.26 0-6.448-.965-9.16-2.773l-.68-.453c-.756-.505-1.645-.774-2.554-.774-2.544 0-4.606 2.062-4.606 4.606 0 .909.269 1.798.774 2.555l.73 1.096c1.627 2.44 2.496 5.309 2.496 8.243 0 2.934-.869 5.803-2.496 8.244l-.73 1.096c-.505.756-.774 1.645-.774 2.554 0 2.544 2.062 4.606 4.606 4.606.909 0 1.798-.269 2.555-.773l.68-.453c1.427-.951 2.985-1.669 4.617-2.136" fill="#f5cf88"/><path d="m35.84 30.227-.68-.453c-.756-.505-1.645-.774-2.554-.774-2.544 0-4.606 2.062-4.606 4.606 0 .909.269 1.798.773 2.555l.73 1.096c1.628 2.44 2.497 5.309 2.497 8.243s-.869 5.803-2.496 8.244l-.159.239c13.139-.345 23.655-8.709 23.655-18.983 0-1.307-.171-2.583-.495-3.816-2.317 1.183-4.885 1.816-7.505 1.816-3.26 0-6.448-.965-9.16-2.773z" fill="#fadfb2"/><path d="m53 62v-4l2-2v-11c0-1.105-.895-2-2-2-1.105 0-2 .895-2 2v-4c0-1.105-.895-2-2-2-1.105 0-2 .895-2 2v-2c0-1.105-.895-2-2-2-1.105 0-2 .895-2 2v2c0-1.105-.895-2-2-2-1.105 0-2 .895-2 2v10c0-1.105-.895-2-2-2-1.105 0-2 .895-2 2v4l6 4v3" fill="#efbe9a"/><path d="m50.986 8.564 4.014 10.436h-33l6.829-11.096c.728-1.183 2.017-1.904 3.406-1.904h15.018c1.655 0 3.139 1.019 3.733 2.564z" fill="#c7e2fc"/><path d="m28.5 16c10.75 0 19.551-4.24 20.414-9.632-.511-.234-1.074-.368-1.661-.368h-15.018c-1.389 0-2.679.721-3.407 1.904l-4.822 7.835c1.449.166 2.948.261 4.494.261z" fill="#ebf7fe"/><path d="m6 28v-6.143l-4 1.143v5z" fill="#f9d18b"/><circle cx="16" cy="36" fill="#4d5d7a" r="8"/><circle cx="16" cy="36" fill="#8892a0" r="4"/><path d="m14 57c2.761 0 5 2.239 5 5 0-2.761 2.239-5 5-5-2.761 0-5-2.239-5-5 0 2.761-2.239 5-5 5z" fill="#8bd2f5"/><path d="m2 50c2.761 0 5 2.239 5 5 0-2.761 2.239-5 5-5-2.761 0-5-2.239-5-5 0 2.761-2.239 5-5 5z" fill="#8bd2f5"/><path d="m2 7c2.761 0 5 2.239 5 5 0-2.761 2.239-5 5-5-2.761 0-5-2.239-5-5 0 2.761-2.239 5-5 5z" fill="#8bd2f5"/><path d="m38 6h2v13h-2z" fill="#8892a0"/><path d="m36 22h4v2h-4z" fill="#fff"/><path d="m52 22h4v2h-4z" fill="#fff"/><g fill="#db9b7c"><path d="m38 51h2v2h-2z"/><path d="m42 41h2v7h-2z"/><path d="m46 41h2v7h-2z"/><path d="m50 45h2v3h-2z"/></g></svg>